<?xml version="1.0" encoding="UTF-8"?>
<svg width="1200pt" height="1200pt" version="1.1" viewBox="0 0 1200 1200" xmlns="http://www.w3.org/2000/svg">
 <path d="m546 240c-64.613 0.03125-127.56 20.512-179.82 58.508-52.258 38-91.148 91.562-111.1 153.02-19.945 61.457-19.93 127.65 0.050781 189.1s58.898 114.99 111.18 152.96c52.277 37.969 115.23 58.418 179.85 58.414 64.613-0.003906 127.57-20.461 179.84-58.441l152.4 152.4v0.003907c12.133 12.133 29.816 16.871 46.391 12.43 16.574-4.4414 29.52-17.387 33.961-33.961 4.4414-16.574-0.29688-34.258-12.43-46.391l-152.4-152.4c44.508-61.18 64.754-136.69 56.824-211.93-7.9297-75.242-43.477-144.87-99.766-195.43-56.289-50.555-129.32-78.449-204.98-78.281zm0 516c-55.695 0-109.11-22.125-148.49-61.508-39.383-39.383-61.508-92.797-61.508-148.49s22.125-109.11 61.508-148.49c39.383-39.383 92.797-61.508 148.49-61.508s109.11 22.125 148.49 61.508c39.383 39.383 61.508 92.797 61.508 148.49-0.0625 55.676-22.207 109.05-61.578 148.42-39.367 39.371-92.746 61.516-148.42 61.578z"/>
</svg>
